<?xml version="1.0" encoding="UTF-8" standalone="no"?>
<!DOCTYPE svg PUBLIC "-//W3C//DTD SVG 1.1//EN" "http://www.w3.org/Graphics/SVG/1.1/DTD/svg11.dtd">
<!-- Generated by graphviz version 2.40.1 (20161225.0304)
 -->
<!-- Title: G Pages: 1 -->
<svg width="578pt" height="404pt" viewBox="0.00 0.00 578.00 404.00" xmlns="http://www.w3.org/2000/svg" xmlns:xlink="http://www.w3.org/1999/xlink">
<g id="graph0" class="graph" transform="scale(1 1) rotate(0) translate(4 400)">
<title>G</title>
<polygon fill="#ffffff" stroke="transparent" points="-4,4 -4,-400 574,-400 574,4 -4,4"/>
<!-- / -->
<g id="node1" class="node">
<title>/</title>
<ellipse fill="none" stroke="#000000" cx="283" cy="-378" rx="27" ry="18"/>
<text text-anchor="middle" x="283" y="-373.8" font-family="Times,serif" font-size="14.00" fill="#000000">/</text>
</g>
<!-- bin -->
<g id="node2" class="node">
<title>bin</title>
<ellipse fill="none" stroke="#000000" cx="27" cy="-306" rx="27" ry="18"/>
<text text-anchor="middle" x="27" y="-301.8" font-family="Times,serif" font-size="14.00" fill="#000000">bin</text>
</g>
<!-- /&#45;&gt;bin -->
<g id="edge1" class="edge">
<title>/-&gt;bin</title>
<path fill="none" stroke="#000000" d="M256.7001,-373.5116C214.8588,-365.937 130.9226,-348.961 63,-324 61.1307,-323.3131 59.2315,-322.556 57.3321,-321.7529"/>
<polygon fill="#000000" stroke="#000000" points="58.5214,-318.448 47.9722,-317.4658 55.6064,-324.8122 58.5214,-318.448"/>
</g>
<!-- boot -->
<g id="node3" class="node">
<title>boot</title>
<ellipse fill="none" stroke="#000000" cx="100" cy="-306" rx="28.4127" ry="18"/>
<text text-anchor="middle" x="100" y="-301.8" font-family="Times,serif" font-size="14.00" fill="#000000">boot</text>
</g>
<!-- /&#45;&gt;boot -->
<g id="edge2" class="edge">
<title>/-&gt;boot</title>
<path fill="none" stroke="#000000" d="M258.6876,-369.8314C229.4747,-359.8282 179.129,-341.9869 137,-324 135.1769,-323.2216 133.3143,-322.4005 131.4422,-321.5551"/>
<polygon fill="#000000" stroke="#000000" points="132.6825,-318.2714 122.1409,-317.2102 129.7198,-324.6136 132.6825,-318.2714"/>
</g>
<!-- dev -->
<g id="node4" class="node">
<title>dev</title>
<ellipse fill="none" stroke="#000000" cx="173" cy="-306" rx="27" ry="18"/>
<text text-anchor="middle" x="173" y="-301.8" font-family="Times,serif" font-size="14.00" fill="#000000">dev</text>
</g>
<!-- /&#45;&gt;dev -->
<g id="edge3" class="edge">
<title>/-&gt;dev</title>
<path fill="none" stroke="#000000" d="M263.5874,-365.2936C246.258,-353.9507 220.6682,-337.201 201.1028,-324.3946"/>
<polygon fill="#000000" stroke="#000000" points="202.8724,-321.3698 192.5885,-318.8216 199.0387,-327.2267 202.8724,-321.3698"/>
</g>
<!-- etc -->
<g id="node5" class="node">
<title>etc</title>
<ellipse fill="none" stroke="#000000" cx="245" cy="-306" rx="27" ry="18"/>
<text text-anchor="middle" x="245" y="-301.8" font-family="Times,serif" font-size="14.00" fill="#000000">etc</text>
</g>
<!-- /&#45;&gt;etc -->
<g id="edge4" class="edge">
<title>/-&gt;etc</title>
<path fill="none" stroke="#000000" d="M273.9945,-360.937C269.5172,-352.4537 264.0048,-342.0092 258.993,-332.513"/>
<polygon fill="#000000" stroke="#000000" points="261.9678,-330.6509 254.2048,-323.4407 255.7771,-333.9182 261.9678,-330.6509"/>
</g>
<!-- home -->
<g id="node6" class="node">
<title>home</title>
<ellipse fill="none" stroke="#000000" cx="322" cy="-306" rx="32.4846" ry="18"/>
<text text-anchor="middle" x="322" y="-301.8" font-family="Times,serif" font-size="14.00" fill="#000000">home</text>
</g>
<!-- /&#45;&gt;home -->
<g id="edge5" class="edge">
<title>/-&gt;home</title>
<path fill="none" stroke="#000000" d="M292.2425,-360.937C296.8376,-352.4537 302.495,-342.0092 307.6388,-332.513"/>
<polygon fill="#000000" stroke="#000000" points="310.8676,-333.9006 312.553,-323.4407 304.7126,-330.5666 310.8676,-333.9006"/>
</g>
<!-- nix -->
<g id="node7" class="node">
<title>nix</title>
<ellipse fill="none" stroke="#000000" cx="399" cy="-306" rx="27" ry="18"/>
<text text-anchor="middle" x="399" y="-301.8" font-family="Times,serif" font-size="14.00" fill="#000000">nix</text>
</g>
<!-- /&#45;&gt;nix -->
<g id="edge6" class="edge">
<title>/-&gt;nix</title>
<path fill="none" stroke="#000000" d="M302.9411,-365.6228C321.5323,-354.0834 349.4639,-336.7465 370.4229,-323.7375"/>
<polygon fill="#000000" stroke="#000000" points="372.2803,-326.7041 378.9309,-318.4567 368.5887,-320.7566 372.2803,-326.7041"/>
</g>
<!-- root -->
<g id="node8" class="node">
<title>root</title>
<ellipse fill="none" stroke="#000000" cx="471" cy="-306" rx="27" ry="18"/>
<text text-anchor="middle" x="471" y="-301.8" font-family="Times,serif" font-size="14.00" fill="#000000">root</text>
</g>
<!-- /&#45;&gt;root -->
<g id="edge7" class="edge">
<title>/-&gt;root</title>
<path fill="none" stroke="#000000" d="M307.5713,-370.2978C337.921,-360.5508 390.939,-342.7588 435,-324 436.7841,-323.2404 438.6045,-322.434 440.4322,-321.5998"/>
<polygon fill="#000000" stroke="#000000" points="441.9728,-324.7429 449.4992,-317.2861 438.9654,-318.4218 441.9728,-324.7429"/>
</g>
<!-- tmp -->
<g id="node9" class="node">
<title>tmp</title>
<ellipse fill="none" stroke="#000000" cx="543" cy="-306" rx="27" ry="18"/>
<text text-anchor="middle" x="543" y="-301.8" font-family="Times,serif" font-size="14.00" fill="#000000">tmp</text>
</g>
<!-- /&#45;&gt;tmp -->
<g id="edge8" class="edge">
<title>/-&gt;tmp</title>
<path fill="none" stroke="#000000" d="M309.4357,-373.6401C351.9252,-366.189 437.6718,-349.3148 507,-324 508.8707,-323.3169 510.771,-322.5629 512.6713,-321.7621"/>
<polygon fill="#000000" stroke="#000000" points="514.3946,-324.8227 522.0334,-317.4811 511.4836,-318.4566 514.3946,-324.8227"/>
</g>
<!-- &lt;username&gt; -->
<g id="node10" class="node">
<title>&lt;username&gt;</title>
<ellipse fill="none" stroke="#000000" cx="322" cy="-234" rx="58.8545" ry="18"/>
<text text-anchor="middle" x="322" y="-229.8" font-family="Times,serif" font-size="14.00" fill="#000000">&lt;username&gt;</text>
</g>
<!-- home&#45;&gt;&lt;username&gt; -->
<g id="edge9" class="edge">
<title>home-&gt;&lt;username&gt;</title>
<path fill="none" stroke="#000000" d="M322,-287.8314C322,-280.131 322,-270.9743 322,-262.4166"/>
<polygon fill="#000000" stroke="#000000" points="325.5001,-262.4132 322,-252.4133 318.5001,-262.4133 325.5001,-262.4132"/>
</g>
<!-- Desktop -->
<g id="node11" class="node">
<title>Desktop</title>
<ellipse fill="none" stroke="#000000" cx="141" cy="-162" rx="43.4396" ry="18"/>
<text text-anchor="middle" x="141" y="-157.8" font-family="Times,serif" font-size="14.00" fill="#000000">Desktop</text>
</g>
<!-- &lt;username&gt;&#45;&gt;Desktop -->
<g id="edge10" class="edge">
<title>&lt;username&gt;-&gt;Desktop</title>
<path fill="none" stroke="#000000" d="M285.807,-219.6028C255.7022,-207.6274 212.8747,-190.591 181.6062,-178.1528"/>
<polygon fill="#000000" stroke="#000000" points="182.8857,-174.895 172.3002,-174.4509 180.2983,-181.3993 182.8857,-174.895"/>
</g>
<!-- Documents -->
<g id="node13" class="node">
<title>Documents</title>
<ellipse fill="none" stroke="#000000" cx="258" cy="-162" rx="55.0362" ry="18"/>
<text text-anchor="middle" x="258" y="-157.8" font-family="Times,serif" font-size="14.00" fill="#000000">Documents</text>
</g>
<!-- &lt;username&gt;&#45;&gt;Documents -->
<g id="edge12" class="edge">
<title>&lt;username&gt;-&gt;Documents</title>
<path fill="none" stroke="#000000" d="M306.5074,-216.5708C298.6259,-207.7041 288.9047,-196.7678 280.2394,-187.0194"/>
<polygon fill="#000000" stroke="#000000" points="282.8314,-184.6671 273.5718,-179.5182 277.5995,-189.3176 282.8314,-184.6671"/>
</g>
<!-- Downloads -->
<g id="node14" class="node">
<title>Downloads</title>
<ellipse fill="none" stroke="#000000" cx="386" cy="-162" rx="55.0381" ry="18"/>
<text text-anchor="middle" x="386" y="-157.8" font-family="Times,serif" font-size="14.00" fill="#000000">Downloads</text>
</g>
<!-- &lt;username&gt;&#45;&gt;Downloads -->
<g id="edge13" class="edge">
<title>&lt;username&gt;-&gt;Downloads</title>
<path fill="none" stroke="#000000" d="M337.4926,-216.5708C345.3741,-207.7041 355.0953,-196.7678 363.7606,-187.0194"/>
<polygon fill="#000000" stroke="#000000" points="366.4005,-189.3176 370.4282,-179.5182 361.1686,-184.6671 366.4005,-189.3176"/>
</g>
<!-- Pictures -->
<g id="node15" class="node">
<title>Pictures</title>
<ellipse fill="none" stroke="#000000" cx="501" cy="-162" rx="42.2893" ry="18"/>
<text text-anchor="middle" x="501" y="-157.8" font-family="Times,serif" font-size="14.00" fill="#000000">Pictures</text>
</g>
<!-- &lt;username&gt;&#45;&gt;Pictures -->
<g id="edge14" class="edge">
<title>&lt;username&gt;-&gt;Pictures</title>
<path fill="none" stroke="#000000" d="M357.7931,-219.6028C387.4369,-207.679 429.5546,-190.7378 460.442,-178.3138"/>
<polygon fill="#000000" stroke="#000000" points="462.0742,-181.4299 470.0457,-174.4509 459.4619,-174.9356 462.0742,-181.4299"/>
</g>
<!-- Discord.desktop -->
<g id="node12" class="node">
<title>Discord.desktop</title>
<ellipse fill="none" stroke="#000000" cx="140" cy="-90" rx="74.1194" ry="18"/>
<text text-anchor="middle" x="140" y="-85.8" font-family="Times,serif" font-size="14.00" fill="#000000">Discord.desktop</text>
</g>
<!-- Desktop&#45;&gt;Discord.desktop -->
<g id="edge11" class="edge">
<title>Desktop-&gt;Discord.desktop</title>
<path fill="none" stroke="#000000" d="M140.7477,-143.8314C140.6407,-136.131 140.5135,-126.9743 140.3947,-118.4166"/>
<polygon fill="#000000" stroke="#000000" points="143.8944,-118.3637 140.2557,-108.4133 136.8951,-118.4609 143.8944,-118.3637"/>
</g>
<!-- git -->
<g id="node16" class="node">
<title>git</title>
<ellipse fill="none" stroke="#000000" cx="259" cy="-90" rx="27" ry="18"/>
<text text-anchor="middle" x="259" y="-85.8" font-family="Times,serif" font-size="14.00" fill="#000000">git</text>
</g>
<!-- Documents&#45;&gt;git -->
<g id="edge15" class="edge">
<title>Documents-&gt;git</title>
<path fill="none" stroke="#000000" d="M258.2523,-143.8314C258.3593,-136.131 258.4865,-126.9743 258.6053,-118.4166"/>
<polygon fill="#000000" stroke="#000000" points="262.1049,-118.4609 258.7443,-108.4133 255.1056,-118.3637 262.1049,-118.4609"/>
</g>
<!-- kmonad -->
<g id="node17" class="node">
<title>kmonad</title>
<ellipse fill="none" stroke="#000000" cx="209" cy="-18" rx="42.299" ry="18"/>
<text text-anchor="middle" x="209" y="-13.8" font-family="Times,serif" font-size="14.00" fill="#000000">kmonad</text>
</g>
<!-- git&#45;&gt;kmonad -->
<g id="edge16" class="edge">
<title>git-&gt;kmonad</title>
<path fill="none" stroke="#000000" d="M247.6542,-73.6621C241.5036,-64.8052 233.7624,-53.6579 226.8262,-43.6697"/>
<polygon fill="#000000" stroke="#000000" points="229.5769,-41.4946 220.9981,-35.2773 223.8273,-45.4874 229.5769,-41.4946"/>
</g>
<!-- dotfiles -->
<g id="node18" class="node">
<title>dotfiles</title>
<ellipse fill="none" stroke="#000000" cx="309" cy="-18" rx="40.0031" ry="18"/>
<text text-anchor="middle" x="309" y="-13.8" font-family="Times,serif" font-size="14.00" fill="#000000">dotfiles</text>
</g>
<!-- git&#45;&gt;dotfiles -->
<g id="edge17" class="edge">
<title>git-&gt;dotfiles</title>
<path fill="none" stroke="#000000" d="M270.3458,-73.6621C276.4964,-64.8052 284.2376,-53.6579 291.1738,-43.6697"/>
<polygon fill="#000000" stroke="#000000" points="294.1727,-45.4874 297.0019,-35.2773 288.4231,-41.4946 294.1727,-45.4874"/>
</g>
</g>
</svg>